<svg width="500" height="500" viewBox="0 0 500 500" fill="none" xmlns="http://www.w3.org/2000/svg">
<path d="M11 11H492V490H11V11Z" fill="white"/>
<path d="M373.755 302.304C395.698 294.276 413.36 281.966 427.275 266.445C446.542 243.967 456.711 213.996 456.711 178.137C456.711 138.532 444.401 104.815 421.388 81.2659C408.543 68.4211 393.022 58.2523 374.825 51.8299C356.628 45.4075 335.22 41.6611 312.207 41.6611H158.604V459.117H242.631V121.406H305.784C327.192 121.406 344.319 126.758 355.023 135.856C365.727 144.955 371.079 158.87 371.079 177.067C371.079 194.728 365.727 208.644 355.558 217.742C343.248 228.981 324.516 234.333 299.362 234.333H283.306V316.219L382.318 459.117H484.006L373.755 302.304Z" fill="#1F1F1F"/>
<path fill-rule="evenodd" clip-rule="evenodd" d="M486.667 13.3333H13.3333V486.667H486.667V13.3333ZM0 0V500H500V0H0Z" fill="#1F1F1F"/>
</svg>
