<svg width="108" height="24" viewBox="0 0 108 24" fill="none" xmlns="http://www.w3.org/2000/svg">
<path d="M17.9403 14.5106C18.9935 14.1252 19.8413 13.5344 20.5092 12.7894C21.434 11.7104 21.9221 10.2718 21.9221 8.5506C21.9221 6.64957 21.3313 5.03113 20.2266 3.90079C19.6101 3.28424 18.8651 2.79613 17.9916 2.48786C17.1182 2.17958 16.0906 1.99976 14.986 1.99976H7.61304V22.0376H11.6463V5.82751H14.6777C15.7053 5.82751 16.5273 6.0844 17.0411 6.52113C17.5549 6.95785 17.8118 7.62578 17.8118 8.49922C17.8118 9.34698 17.5549 10.0149 17.0668 10.4516C16.476 10.9911 15.5768 11.248 14.3694 11.248H13.5987V15.1785L18.3513 22.0376H23.2323L17.9403 14.5106Z" fill="#FDFDFD"/>
<path fill-rule="evenodd" clip-rule="evenodd" d="M23.36 0.64H0.64V23.36H23.36V0.64ZM0 0V24H24V0H0Z" fill="#FDFDFD"/>
<path d="M31.7298 21.9804C32.7317 21.9804 33.7079 21.7749 34.6327 21.3638C35.5319 20.9785 36.3283 20.4133 36.9962 19.7197L34.2731 17.1507C33.6052 17.8701 32.706 18.2554 31.7298 18.2554C30.471 18.2554 29.3664 17.5875 28.7498 16.6113H38.9486V14.7359C38.9486 12.8092 38.2036 10.9852 36.842 9.62369C35.4805 8.26214 33.6565 7.49146 31.7298 7.49146C29.7774 7.49146 27.9791 8.26214 26.5919 9.62369C25.2303 10.9852 24.4854 12.8092 24.4854 14.7359C24.4854 16.6626 25.2303 18.4866 26.5919 19.8482C27.9791 21.2097 29.7774 21.9804 31.7298 21.9804ZM28.7498 12.8863C29.3664 11.8844 30.471 11.2164 31.7298 11.2164C32.9629 11.2164 34.0676 11.8844 34.7098 12.8863H28.7498Z" fill="white"/>
<path d="M46.3917 22.0831C48.7809 22.0831 51.0415 20.9014 52.4288 18.8976L49.2433 16.714C48.601 17.6645 47.5221 18.2297 46.3917 18.2297C44.465 18.2297 42.9236 16.6626 42.9236 14.7616C42.9236 12.8349 44.465 11.2935 46.3917 11.2935C47.4964 11.2935 48.5753 11.833 49.2176 12.7578L52.3774 10.5485C51.7095 9.59799 50.8103 8.8273 49.8084 8.28782C48.7552 7.72265 47.5735 7.44006 46.3917 7.44006C45.3898 7.44006 44.4393 7.61989 43.5402 8.00523C42.6667 8.39058 41.8704 8.90437 41.2024 9.5723C40.5345 10.2659 39.995 11.0366 39.6354 11.9101C39.25 12.8092 39.0702 13.7854 39.0702 14.7616C39.0702 15.7378 39.25 16.714 39.6354 17.6131C39.995 18.4866 40.5345 19.2573 41.2024 19.9509C41.8704 20.6188 42.6667 21.1326 43.5402 21.518C44.4393 21.8776 45.3898 22.0831 46.3917 22.0831Z" fill="white"/>
<path d="M62.9997 7.41443L63.0254 8.23649C61.9978 7.7227 60.8675 7.44012 59.7114 7.44012C58.7352 7.44012 57.759 7.61994 56.8599 8.00529C55.9864 8.39063 55.2158 8.90442 54.5221 9.57235C53.8542 10.2403 53.3404 11.0367 52.9551 11.9101C52.5954 12.8092 52.3899 13.7854 52.3899 14.7617C52.3899 15.7379 52.5954 16.7141 52.9551 17.6132C53.3404 18.4866 53.8542 19.2573 54.5221 19.951C55.2158 20.6189 55.9864 21.1327 56.8599 21.518C57.759 21.8777 58.7352 22.0832 59.7114 22.0832C60.8675 22.0832 61.9978 21.8006 63.0254 21.2868L62.9997 21.8777H66.8531V7.41443H62.9997ZM61.4583 17.7416C60.9445 18.0499 60.328 18.2297 59.7114 18.2297C57.8104 18.2297 56.2433 16.6627 56.2433 14.7617C56.2433 12.8606 57.8104 11.2936 59.7114 11.2936C60.3794 11.2936 61.0473 11.4734 61.5868 11.8587C62.1519 12.1927 62.5887 12.7065 62.8456 13.2973C63.0768 13.7598 63.1795 14.2479 63.1795 14.7617C63.1795 15.3782 63.0254 15.9691 62.7171 16.5085C62.4088 17.0223 61.9978 17.4591 61.4583 17.7416Z" fill="white"/>
<path d="M74.0853 22.0318C76.68 22.0318 78.7865 19.9253 78.7865 17.3306C78.7865 14.736 76.68 12.6294 74.0853 12.6294H73.0064C72.621 12.6294 72.3384 12.3212 72.3384 11.9615C72.3384 11.5762 72.621 11.2679 73.0064 11.2679H78.3755V7.23462H73.0064C70.4117 7.23462 68.3052 9.36686 68.3052 11.9615C68.3052 14.5562 70.4117 16.6627 73.0064 16.6627H74.0853C74.445 16.6627 74.7533 16.971 74.7533 17.3306C74.7533 17.716 74.445 17.9986 74.0853 17.9986H68.074V22.0318H74.0853Z" fill="white"/>
<path d="M88.2015 11.1651V7.56853H84.1169V2.97009L80.2634 4.25457V14.2221C80.2634 15.3011 80.4689 16.3287 80.88 17.3049C81.2653 18.2554 81.8562 19.1032 82.5755 19.8225C83.2948 20.5675 84.1425 21.1326 85.0931 21.5437C86.0693 21.9547 87.1225 22.1602 88.2015 22.1602V18.3068C85.9408 18.3068 84.1169 16.4828 84.1169 14.2221V11.1651H88.2015Z" fill="white"/>
<path d="M95.3517 22.0575C97.0729 22.0575 98.6914 21.3896 99.8988 20.1822C101.106 18.9748 101.774 17.3563 101.774 15.6351V7.5686H97.9207V15.6351C97.9207 17.0481 96.7646 18.2041 95.3517 18.2041C93.9388 18.2041 92.7828 17.0481 92.7828 15.6351V7.5686H88.9293V15.6351C88.9293 17.3563 89.5972 18.9748 90.8047 20.1822C92.0121 21.3896 93.6305 22.0575 95.3517 22.0575Z" fill="#838383"/>
<path d="M103.868 21.8777H107.747V7.05481L103.868 8.33929V21.8777Z" fill="#838383"/>
</svg>
