<svg width="20" height="20" viewBox="0 0 20 20" fill="none" xmlns="http://www.w3.org/2000/svg">
<path d="M14.9503 12.0922C15.828 11.7711 16.5344 11.2787 17.091 10.6579C17.8617 9.75873 18.2685 8.55988 18.2685 7.12554C18.2685 5.54135 17.7761 4.19265 16.8556 3.2507C16.3418 2.7369 15.7209 2.33015 14.9931 2.07326C14.2652 1.81636 13.4089 1.6665 12.4883 1.6665H6.34424V18.3647H9.70529V4.8563H12.2314C13.0878 4.8563 13.7728 5.07038 14.201 5.43431C14.6291 5.79825 14.8432 6.35486 14.8432 7.08273C14.8432 7.78919 14.6291 8.3458 14.2224 8.70974C13.73 9.1593 12.9807 9.37338 11.9745 9.37338H11.3323V12.6488L15.2928 18.3647H19.3603L14.9503 12.0922Z" fill="#1F1F1F"/>
<path fill-rule="evenodd" clip-rule="evenodd" d="M19.4667 0.533333H0.533333V19.4667H19.4667V0.533333ZM0 0V20H20V0H0Z" fill="#1F1F1F"/>
</svg>
