<svg width="36" height="36" viewBox="0 0 36 36" fill="none" xmlns="http://www.w3.org/2000/svg">
<path d="M26.9104 21.7659C28.4903 21.1879 29.7619 20.3016 30.7638 19.1841C32.1511 17.5656 32.8832 15.4077 32.8832 12.8259C32.8832 9.97436 31.9969 7.54669 30.3399 5.85118C29.4151 4.92635 28.2976 4.1942 26.9874 3.73179C25.6773 3.26937 24.1359 2.99963 22.4789 2.99963H11.4196V33.0565H17.4694V8.74126H22.0165C23.5579 8.74126 24.791 9.1266 25.5617 9.78169C26.3324 10.4368 26.7177 11.4387 26.7177 12.7488C26.7177 14.0205 26.3324 15.0224 25.6002 15.6775C24.7139 16.4867 23.3652 16.872 21.5541 16.872H20.3981V22.7678L27.5269 33.0565H34.8485L26.9104 21.7659Z" fill="white"/>
<path fill-rule="evenodd" clip-rule="evenodd" d="M35.04 0.96H0.96V35.04H35.04V0.96ZM0 0V36H36V0H0Z" fill="white"/>
</svg>
