<svg width="162" height="36" viewBox="0 0 162 36" fill="none" xmlns="http://www.w3.org/2000/svg">
<path d="M26.9104 21.7659C28.4903 21.1879 29.7619 20.3016 30.7638 19.1841C32.1511 17.5656 32.8832 15.4077 32.8832 12.8259C32.8832 9.97436 31.9969 7.54669 30.3399 5.85118C29.4151 4.92635 28.2976 4.1942 26.9874 3.73179C25.6773 3.26937 24.1359 2.99963 22.4789 2.99963H11.4196V33.0565H17.4694V8.74126H22.0165C23.5579 8.74126 24.791 9.1266 25.5617 9.78169C26.3324 10.4368 26.7177 11.4387 26.7177 12.7488C26.7177 14.0205 26.3324 15.0224 25.6002 15.6775C24.7139 16.4867 23.3652 16.872 21.5541 16.872H20.3981V22.7678L27.5269 33.0565H34.8485L26.9104 21.7659Z" fill="#FDFDFD"/>
<path fill-rule="evenodd" clip-rule="evenodd" d="M35.04 0.96H0.96V35.04H35.04V0.96ZM0 0V36H36V0H0Z" fill="#FDFDFD"/>
<path d="M47.5947 32.9707C49.0976 32.9707 50.5619 32.6624 51.9491 32.0459C53.2978 31.4679 54.4924 30.6201 55.4943 29.5797L51.4096 25.7262C50.4077 26.8052 49.059 27.3832 47.5947 27.3832C45.7065 27.3832 44.0496 26.3813 43.1247 24.917H58.4229V22.104C58.4229 19.2139 57.3054 16.478 55.2631 14.4357C53.2207 12.3933 50.4848 11.2373 47.5947 11.2373C44.6661 11.2373 41.9687 12.3933 39.8878 14.4357C37.8455 16.478 36.728 19.2139 36.728 22.104C36.728 24.9941 37.8455 27.73 39.8878 29.7724C41.9687 31.8147 44.6661 32.9707 47.5947 32.9707ZM43.1247 19.3295C44.0496 17.8267 45.7065 16.8248 47.5947 16.8248C49.4444 16.8248 51.1014 17.8267 52.0647 19.3295H43.1247Z" fill="white"/>
<path d="M69.5877 33.1248C73.1714 33.1248 76.5624 31.3522 78.6432 28.3465L73.865 25.0711C72.9016 26.4968 71.2832 27.3446 69.5877 27.3446C66.6976 27.3446 64.3855 24.994 64.3855 22.1425C64.3855 19.2524 66.6976 16.9403 69.5877 16.9403C71.2446 16.9403 72.8631 17.7495 73.8264 19.1368L78.5662 15.8228C77.5643 14.397 76.2156 13.241 74.7127 12.4318C73.1328 11.584 71.3602 11.1602 69.5877 11.1602C68.0848 11.1602 66.659 11.4299 65.3103 12.0079C64.0002 12.5859 62.8056 13.3566 61.8037 14.3585C60.8018 15.3989 59.9926 16.555 59.4531 17.8651C58.8751 19.2138 58.6053 20.6782 58.6053 22.1425C58.6053 23.6068 58.8751 25.0711 59.4531 26.4198C59.9926 27.7299 60.8018 28.886 61.8037 29.9264C62.8056 30.9283 64.0002 31.699 65.3103 32.277C66.659 32.8165 68.0848 33.1248 69.5877 33.1248Z" fill="white"/>
<path d="M94.4996 11.1216L94.5381 12.3547C92.9967 11.584 91.3012 11.1601 89.5672 11.1601C88.1028 11.1601 86.6385 11.4299 85.2898 12.0079C83.9797 12.5859 82.8236 13.3566 81.7832 14.3585C80.7813 15.3604 80.0106 16.5549 79.4326 17.8651C78.8931 19.2138 78.5848 20.6781 78.5848 22.1424C78.5848 23.6067 78.8931 25.071 79.4326 26.4197C80.0106 27.7299 80.7813 28.8859 81.7832 29.9264C82.8236 30.9283 83.9797 31.699 85.2898 32.277C86.6385 32.8164 88.1028 33.1247 89.5672 33.1247C91.3012 33.1247 92.9967 32.7008 94.5381 31.9302L94.4996 32.8164H100.28V11.1216H94.4996ZM92.1875 26.6124C91.4168 27.0748 90.492 27.3446 89.5672 27.3446C86.7156 27.3446 84.365 24.994 84.365 22.1424C84.365 19.2909 86.7156 16.9403 89.5672 16.9403C90.569 16.9403 91.5709 17.21 92.3802 17.788C93.2279 18.289 93.883 19.0597 94.2683 19.946C94.6152 20.6396 94.7693 21.3717 94.7693 22.1424C94.7693 23.0672 94.5381 23.9535 94.0757 24.7628C93.6133 25.5334 92.9967 26.1885 92.1875 26.6124Z" fill="white"/>
<path d="M111.128 33.0476C115.02 33.0476 118.18 29.8878 118.18 25.9958C118.18 22.1039 115.02 18.944 111.128 18.944H109.509C108.931 18.944 108.508 18.4816 108.508 17.9421C108.508 17.3641 108.931 16.9017 109.509 16.9017H117.563V10.8518H109.509C105.617 10.8518 102.458 14.0502 102.458 17.9421C102.458 21.8341 105.617 24.9939 109.509 24.9939H111.128C111.667 24.9939 112.13 25.4563 112.13 25.9958C112.13 26.5738 111.667 26.9977 111.128 26.9977H102.111V33.0476H111.128Z" fill="white"/>
<path d="M132.302 16.7477V11.3529H126.175V4.4552L120.395 6.38192V21.3333C120.395 22.9517 120.704 24.4931 121.32 25.9574C121.898 27.3832 122.784 28.6548 123.863 29.7338C124.942 30.8513 126.214 31.699 127.64 32.3156C129.104 32.9321 130.684 33.2404 132.302 33.2404V27.4602C128.911 27.4602 126.175 24.7243 126.175 21.3333V16.7477H132.302Z" fill="white"/>
<path d="M143.028 33.0862C145.609 33.0862 148.037 32.0843 149.848 30.2732C151.659 28.4621 152.661 26.0344 152.661 23.4526V11.3528H146.881V23.4526C146.881 25.572 145.147 27.306 143.028 27.306C140.908 27.306 139.174 25.572 139.174 23.4526V11.3528H133.394V23.4526C133.394 26.0344 134.396 28.4621 136.207 30.2732C138.018 32.0843 140.446 33.0862 143.028 33.0862Z" fill="#838383"/>
<path d="M155.802 32.8165H161.62V10.5822L155.802 12.5089V32.8165Z" fill="#838383"/>
</svg>
